<svg width="33" height="34" viewBox="0 0 33 34" fill="none" xmlns="http://www.w3.org/2000/svg">
<path d="M9 15.5L15 2C16.1935 2 17.3381 2.47411 18.182 3.31802C19.0259 4.16193 19.5 5.30653 19.5 6.5V12.5H27.99C28.4249 12.4951 28.8556 12.5848 29.2524 12.7628C29.6491 12.9409 30.0024 13.2031 30.2878 13.5313C30.5732 13.8594 30.7838 14.2457 30.905 14.6634C31.0263 15.081 31.0553 15.52 30.99 15.95L28.92 29.45C28.8115 30.1654 28.4482 30.8174 27.8969 31.286C27.3456 31.7546 26.6435 32.0082 25.92 32H9M9 15.5V32M9 15.5H4.5C3.70435 15.5 2.94129 15.8161 2.37868 16.3787C1.81607 16.9413 1.5 17.7044 1.5 18.5V29C1.5 29.7956 1.81607 30.5587 2.37868 31.1213C2.94129 31.6839 3.70435 32 4.5 32H9" stroke="#2A72A8" stroke-width="3" stroke-linecap="round" stroke-linejoin="round"/>
</svg>
