<svg width="16" height="16" viewBox="0 0 16 16" fill="none" xmlns="http://www.w3.org/2000/svg">
<path d="M4.64375 4.85711C4.54986 4.76231 4.49719 4.63428 4.49719 4.50086C4.49719 4.36744 4.54986 4.23941 4.64375 4.14461L7.64375 1.14461C7.73855 1.05072 7.86658 0.998047 8 0.998047C8.13342 0.998047 8.26145 1.05072 8.35625 1.14461L11.3562 4.14461C11.4501 4.23941 11.5028 4.36744 11.5028 4.50086C11.5028 4.63428 11.4501 4.76231 11.3562 4.85711C11.2607 4.94952 11.1329 5.00118 11 5.00118C10.8671 5.00118 10.7393 4.94952 10.6438 4.85711L8.5 2.70711V8.00086C8.5 8.13347 8.44732 8.26065 8.35355 8.35441C8.25979 8.44818 8.13261 8.50086 8 8.50086C7.86739 8.50086 7.74021 8.44818 7.64645 8.35441C7.55268 8.26065 7.5 8.13347 7.5 8.00086V2.70711L5.35625 4.85711C5.26145 4.951 5.13342 5.00367 5 5.00367C4.86658 5.00367 4.73855 4.951 4.64375 4.85711ZM15 8.50086V12.5009C15 12.7661 14.8946 13.0204 14.7071 13.208C14.5196 13.3955 14.2652 13.5009 14 13.5009H2C1.73478 13.5009 1.48043 13.3955 1.29289 13.208C1.10536 13.0204 1 12.7661 1 12.5009V8.50086C1 8.23564 1.10536 7.98129 1.29289 7.79375C1.48043 7.60622 1.73478 7.50086 2 7.50086H6.25C6.3163 7.50086 6.37989 7.5272 6.42678 7.57408C6.47366 7.62097 6.5 7.68456 6.5 7.75086V7.96961C6.5 8.80711 7.1875 9.51961 8.03125 9.50086C8.42363 9.49269 8.79718 9.33105 9.07177 9.05062C9.34635 8.7702 9.50008 8.39333 9.5 8.00086V7.75086C9.5 7.68456 9.52634 7.62097 9.57322 7.57408C9.62011 7.5272 9.6837 7.50086 9.75 7.50086H14C14.2652 7.50086 14.5196 7.60622 14.7071 7.79375C14.8946 7.98129 15 8.23564 15 8.50086ZM12.5 10.5009C12.5 10.3525 12.456 10.2075 12.3736 10.0842C12.2912 9.96085 12.1741 9.86472 12.037 9.80795C11.9 9.75119 11.7492 9.73633 11.6037 9.76527C11.4582 9.79421 11.3246 9.86564 11.2197 9.97053C11.1148 10.0754 11.0434 10.2091 11.0144 10.3545C10.9855 10.5 11.0003 10.6508 11.0571 10.7879C11.1139 10.9249 11.21 11.0421 11.3333 11.1245C11.4567 11.2069 11.6017 11.2509 11.75 11.2509C11.9489 11.2509 12.1397 11.1718 12.2803 11.0312C12.421 10.8905 12.5 10.6998 12.5 10.5009Z" fill="white"/>
</svg>
