<svg width="15" height="15" viewBox="0 0 15 15" fill="none" xmlns="http://www.w3.org/2000/svg">
<path d="M7.61397 0.451878L9.69642 4.68897L14.3602 5.3669C14.4194 5.37567 14.475 5.40078 14.5206 5.4394C14.5662 5.47803 14.6002 5.52862 14.6185 5.5855C14.6369 5.64238 14.639 5.70328 14.6247 5.76133C14.6103 5.81939 14.5799 5.87231 14.5371 5.91412L11.1592 9.21344L11.9514 13.8709C11.9616 13.9298 11.9551 13.9904 11.9326 14.0458C11.9101 14.1012 11.8726 14.1492 11.8242 14.1845C11.7758 14.2197 11.7185 14.2406 11.6588 14.245C11.5992 14.2493 11.5395 14.2369 11.4866 14.2091L7.31642 12.012L3.14194 14.2129C3.08901 14.2409 3.02931 14.2535 2.96963 14.2492C2.90995 14.245 2.85267 14.2241 2.80432 14.189C2.75597 14.1538 2.71848 14.1058 2.69611 14.0504C2.67373 13.995 2.66738 13.9344 2.67776 13.8755L3.47911 9.2164L0.10681 5.9197C0.0640504 5.87792 0.0338322 5.82503 0.019558 5.76698C0.00528376 5.70893 0.00752058 5.64803 0.0260166 5.59114C0.0445125 5.53425 0.078533 5.48363 0.124247 5.44497C0.16996 5.40631 0.225552 5.38116 0.28476 5.37234L4.94991 4.6908L7.04168 0.4521C7.06777 0.398387 7.10846 0.35308 7.1591 0.321371C7.20974 0.289661 7.26828 0.272831 7.328 0.272808C7.38773 0.272784 7.44623 0.28957 7.49681 0.32124C7.54739 0.35291 7.58799 0.398185 7.61397 0.451878Z" fill="#FDE047"/>
</svg>
